<svg width="156" height="171" viewBox="0 0 156 171" fill="none" xmlns="http://www.w3.org/2000/svg">
<g clip-path="url(#clip0_2_10)">
<path d="M46.4 1.99999C35.2 5.06666 27.4667 9.59999 18.5333 18.5333C9.46667 27.7333 5.06667 35.2 1.86667 47.0666C-0.800001 57.0666 -0.666667 95.4667 2 106C6.26667 122.133 16.6667 136.133 30.4 144L38.5333 148.667L38.9333 159.333C39.2 167.467 39.7333 170 41.3333 170.4C42.4 170.533 47.6 166.933 52.6667 162.267L62 153.733L84 152.933C102 152.4 107.6 151.733 114.533 149.333C130.933 143.6 145.467 129.2 152.267 112.133C154.8 105.733 155.2 101.467 155.733 80.6666C156.533 45.4666 153.2 34.4 137.467 18.5333C128.267 9.46666 120.8 5.06666 108.933 1.86666C99.7333 -0.533339 55.3333 -0.533339 46.4 1.99999ZM115.067 10.5333C123.867 14 136.8 25.2 141.733 33.7333C148.4 45.0667 149.6 52.5333 149.067 79.8666L148.667 104.8L143.6 114.933C135.733 131.067 121.333 142.133 104.133 145.333C100.267 146 88.6667 146.667 78.5333 146.667H60.2667L52.8 153.467L45.3333 160.267V152.267V144.267L38.1333 140.8C26.6667 135.2 18.1333 126.533 12.4 114.933L7.33333 104.8V76.8C7.33333 50.4 7.46667 48.1333 10.4 41.0666C13.8667 32.4 24.2667 20.1333 32.6667 14.9333C44 7.73333 50.1333 6.66666 80 7.06666C104.933 7.33333 108 7.73333 115.067 10.5333Z" fill="white"/>
<path d="M80.9333 24.9333C78.4 27.3333 80.2667 30.5333 85.0667 32.1333C98.9333 36.5333 113.067 49.8666 119.467 64.5333C122.133 70.6666 124 73.3333 125.6 73.3333C132.667 73.3333 122.667 52 110.133 40.2666C100.267 31.2 83.4667 22.2666 80.9333 24.9333Z" fill="white"/>
<path d="M39.2 39.2L31.3333 46.2666V54.4C31.3333 62 31.7333 63.0667 39.0667 73.8667C49.3333 88.8 64.2667 102.667 81.4667 113.067C96.5333 122 103.467 123.6 109.867 119.333C112.933 117.2 122.667 103.867 122.667 101.6C122.667 100.933 117.467 96.9333 111.067 92.6667C98.2667 84.1333 93.8667 83.2 88.9333 87.7333C86 90.5333 85.8667 90.5333 80.6667 88.1333C73.7333 84.9333 68.9333 80.2667 65.3333 73.3333L62.5333 67.7333L65.2 64.8C70.2667 59.4667 68.9333 55.0666 58.5333 42.9333C53.2 36.9333 48.5333 32 48 32C47.4667 32 43.6 35.2 39.2 39.2ZM55.0667 48.8C58.5333 52.9333 61.3333 57.0667 61.3333 58C61.3333 58.8 60.1333 60.6667 58.6667 62C55.2 65.0667 55.3333 67.2 59.2 75.3333C63.3333 84.4 72.5333 92.5333 81.7333 95.4667L89.0667 97.7333L92.2667 94L95.4667 90.4L104.933 96.5333L114.533 102.667L111.867 107.2C106.267 116.667 101.6 117.2 89.2 110C62.6667 94.5333 39.6 70.4 37.7333 56.1333C37.0667 51.0667 37.4667 50 41.4667 45.8666C43.8667 43.3333 46.5333 41.3333 47.3333 41.3333C48.1333 41.3333 51.6 44.6666 55.0667 48.8Z" fill="white"/>
<path d="M81.3333 42.6666C81.3333 44.5333 83.2 46.1333 88 48.1333C95.6 51.3333 101.867 57.8666 105.6 66.2666C108.133 72 111.467 73.7333 112.8 70.1333C113.733 67.6 109.333 57.7333 104.667 52.2666C100.267 47.0666 88.6667 40 84.4 40C82.2667 40 81.3333 40.8 81.3333 42.6666Z" fill="white"/>
<path d="M81.3333 55.3333C81.3333 56.5333 83.3333 58.6666 85.8667 60.1333C88.4 61.6 91.7333 64.9333 93.2 67.3333C95.0667 70.5333 96.5333 71.7333 98 71.2C104.8 68.5333 92.9333 53.3333 84 53.3333C82.5333 53.3333 81.3333 54.2666 81.3333 55.3333Z" fill="white"/>
</g>
<defs>
<clipPath id="clip0_2_10">
<rect width="156" height="170.667" fill="white"/>
</clipPath>
</defs>
</svg>
