<svg width="220" height="168" viewBox="0 0 220 168" fill="none" xmlns="http://www.w3.org/2000/svg">
<path fill-rule="evenodd" clip-rule="evenodd" d="M109.45 14.936C107.939 16.424 88.837 27.8 72.5 36.94C49.163 49.997 25.759 63.647 22.931 65.851C20.551 67.705 20.394 68.319 20.799 74.176C21.04 77.654 21.633 80.995 22.117 81.601C22.893 82.571 31.219 87.555 51.5 99.189L57.5 102.631V110.99V119.35L40.292 130.925C30.828 137.291 22.563 143.025 21.925 143.668C20.687 144.913 20.308 156.072 21.441 157.905C22.264 159.236 25.246 159.341 26.55 158.084C27.073 157.58 37.85 151.211 50.5 143.929C63.15 136.647 74.85 129.881 76.5 128.892C78.15 127.904 83.775 124.741 89 121.863C94.225 118.985 101.82 114.677 105.879 112.288L113.258 107.945L127.191 116.041C134.854 120.493 143.684 125.517 146.812 127.206C149.94 128.894 156.1 132.409 160.5 135.016C164.9 137.623 171.65 141.545 175.5 143.732C179.35 145.919 187.394 150.507 193.375 153.929C201.035 158.31 204.564 159.836 205.31 159.09C206.99 157.41 207.374 146.786 205.829 144.744C205.098 143.778 197.525 138.972 189 134.063C167.265 121.549 168.997 123.226 169.015 114.703C169.024 110.741 169.361 107.05 169.765 106.5C170.169 105.95 178.434 100.18 188.131 93.678C204.761 82.528 205.796 81.648 206.37 78.178C207.491 71.397 207.088 68.431 204.75 66.248C202.688 64.322 176.194 48.764 146.5 32.042C139.9 28.325 130.136 22.745 124.803 19.642C115.434 14.191 111.447 12.969 109.45 14.936ZM129.856 27.347C135.71 30.838 149.5 38.79 160.5 45.018C187.075 60.064 200.34 67.994 201.235 69.37C201.639 69.991 201.976 71.561 201.985 72.858C201.998 74.865 201.634 75.125 199.546 74.601C198.196 74.262 194.258 72.257 190.796 70.146C183.6 65.759 181.416 64.497 144.094 43.165C129.02 34.549 116.236 26.774 115.685 25.886C114.389 23.801 115.472 21 117.575 21C118.475 21 124.002 23.856 129.856 27.347ZM133.368 41.885C191.667 75.053 198.994 79.386 198.668 80.5C198.396 81.428 174.704 98.071 168.939 101.384C166.516 102.776 165.947 102.608 158.439 98.282C154.072 95.767 145.775 90.999 140 87.686C134.225 84.374 124.775 78.894 119 75.509C113.225 72.123 102.321 66.011 94.769 61.927C87.217 57.842 81.029 54.018 81.019 53.428C81.008 52.839 87.54 47.934 95.533 42.529C103.527 37.124 110.303 32.318 110.592 31.851C111.74 29.994 114.965 31.415 133.368 41.885ZM85 61.311C88.025 63.129 93.875 66.457 98 68.705C102.125 70.954 110.675 75.836 117 79.553C123.325 83.271 136.327 90.708 145.894 96.081C155.461 101.453 163.667 106.446 164.129 107.175C165.502 109.34 165.192 119.001 163.75 118.993C162.667 118.986 151.545 112.722 121.104 94.971L113.708 90.659L109.604 92.765C98.707 98.357 79.544 106.836 78.817 106.387C77.792 105.754 77.726 57.999 78.75 58.003C79.162 58.004 81.975 59.493 85 61.311ZM58 81.607C58 95.743 57.843 97.154 56.339 96.576C54.491 95.867 32.581 83.431 29.61 81.404C27.911 80.246 29.125 79.409 41.61 73.135C49.249 69.295 56.063 66.119 56.75 66.077C57.7 66.018 58 69.747 58 81.607ZM132.582 106.588C140.787 111.312 156.275 120.163 167 126.257C200.708 145.412 203 147.015 203 151.434C203 152.295 202.437 153 201.75 153C200.32 153 188.916 146.734 164.5 132.534C155.15 127.096 142.02 119.604 135.323 115.885C115.307 104.773 112.516 102.493 115.105 99.373C115.732 98.618 116.564 98 116.955 98C117.345 98 124.377 101.865 132.582 106.588Z" fill="black"/>
</svg>
