<svg width="171" height="171" viewBox="0 0 171 171" fill="none" xmlns="http://www.w3.org/2000/svg">
<path d="M83.3333 50.8C47.4667 64.8 17.0667 77.0667 16 78.1334C12.2667 81.7334 16.2667 84.4 34.2667 90.1334L51.7333 95.6L88.9333 72C109.467 59.0667 127.2 48.1334 128.4 47.6C134.8 45.2 128.933 51.2 101.333 76C84.5333 91.0667 70.5333 104.267 70.1333 105.333C69.8667 106.4 69.2 114.133 68.6667 122.4C68 134.533 68.1333 137.333 69.6 137.333C70.5333 137.333 75.3333 133.467 80 128.667C84.6667 123.867 89.0667 120 89.7333 120C90.4 120 98.6667 125.733 108.267 132.667C117.867 139.6 126.4 145.333 127.2 145.333C132.667 145.333 133.6 142.267 144.8 89.8667C150.933 61.3334 155.867 35.7334 156 33.0667C156 28.4 153.333 25.0667 149.733 25.4667C149.2 25.4667 119.333 36.9334 83.3333 50.8Z" fill="white"/>
</svg>
